<svg id="Capa_1" enable-background="new 0 0 512 512" height="512" viewBox="0 0 512 512" width="512" xmlns="http://www.w3.org/2000/svg"><g><path d="m439.669 395.652v-37.945c0-6.979-5.691-12.657-12.688-12.657h-67.918c-6.98 0-12.659 5.678-12.659 12.657v37.945c0 6.979 5.679 12.658 12.659 12.658h67.918c6.997 0 12.688-5.679 12.688-12.658zm-15-2.342h-63.265v-33.26h63.265z"/><path d="m502.626 448.591c-.049-.45-.101-.922-.154-1.438l-37.052-353.02c-.726-6.597-5.852-11.384-12.189-11.384h-53.892c-.02 0-.036-.016-.036-.036v-9.043c0-40.622-33.057-73.67-73.689-73.67-40.93 0-74.228 33.048-74.228 73.67v9.043c0 .02-.016.036-.036.036h-53.693c-6.291 0-11.522 4.929-12.164 11.417l-9.109 86.373c-.001.01-.006.019-.014.024-8.137 5.911-14.911 13.915-19.736 23.539-.006.012-.018.019-.031.019h-2.536c-.013 0-.025-.008-.031-.019-9.73-19.392-27.38-32.196-48.089-34.594-19.742-2.287-38.476 5.283-48.894 19.752-5.658 7.86-13.033 23.904-5.097 48.339.007.023-.009.047-.033.047h-25.975c-9.331 0-16.896 7.564-16.896 16.896v36.229c0 8.159 6.357 14.841 14.368 15.381.018.001.032.016.032.034v179.666c0 14.417 11.745 26.146 26.181 26.146h81.467 48.444 81.466c14.46 0 26.182-11.722 26.182-26.182v-20.74c0-.02.016-.036.036-.036h82.939c4.125 0 7.739-3.178 7.845-7.302.109-4.233-3.289-7.698-7.497-7.698h-83.287c-.02 0-.036-.016-.036-.036v-48.414c0-.003 0-.005 0-.008v-95.398c0-.018.014-.033.032-.034 8.026-.539 14.396-7.222 14.396-15.381v-37.719c0-8.495-6.925-15.406-15.437-15.406h-27.435c-.024 0-.041-.024-.033-.047 7.935-24.435.558-40.479-5.103-48.339-10.424-14.475-29.165-22.042-48.916-19.75-4.246.493-8.362 1.426-12.308 2.76-.024.008-.048-.011-.046-.037l7.852-74.454c.002-.018.017-.032.035-.032h51.12c.02 0 .036.016.036.036v33.614c0 .02-.016.036-.036.036h-2.973c-4.125 0-7.739 3.178-7.845 7.302-.109 4.233 3.289 7.698 7.497 7.698h21.338c4.125 0 7.739-3.178 7.845-7.302.109-4.233-3.289-7.698-7.497-7.698h-3.293c-.02 0-.036-.016-.036-.036v-33.611c0-.02.016-.036.036-.036h117.846c.02 0 .036.016.036.036v33.614c0 .02-.016.036-.036.036h-2.945c-4.125 0-7.739 3.178-7.845 7.302-.109 4.233 3.289 7.698 7.497 7.698h21.338c4.125 0 7.739-3.178 7.845-7.302.109-4.233-3.289-7.698-7.497-7.698h-3.321c-.02 0-.036-.016-.036-.036v-33.614c0-.02.016-.036.036-.036h51.346c.018 0 .033.014.035.032l36.832 350.917c.048.467.097.915.144 1.345h-82.193c-4.125 0-7.739 3.178-7.845 7.302-.109 4.233 3.289 7.698 7.497 7.698h83.14c4.111 0 8.74-.476 11.906-4.009 3.378-3.768 2.872-8.376 2.425-12.442zm-356.443-229.469h19.047c5.118 0 9.281 4.148 9.281 9.248v7.85 1.391c0 .02-.016.036-.036.036h-37.54c-.02 0-.036-.016-.036-.036v-9.205c.001-5.128 4.157-9.284 9.284-9.284zm-121.722 72.084c-.184 0-.409-.201-.409-.435v-37.683c0-.243.199-.442.442-.442h88.186c.02 0 .036.016.036.036v38.489c0 .02-.016.036-.036.036h-88.219zm75.163-69.912c2.536-2.39 6.495-2.845 10.332-1.188 5.875 2.536 9.879 8.868 11.331 17.498.004.022-.013.043-.036.043h-23.908c-.017 0-.031-.012-.035-.028-1.744-7.32-.958-13.24 2.316-16.325zm23.976 275.67c0 .02-.016.036-.036.036h-71.641c-.033 0-.048-.042-.023-.063l71.642-59.282c.023-.019.058-.003.058.027zm0-170.84c0 .011-.005.021-.013.027l-31.299 25.782c-3.408 2.807-3.953 8.005-.899 11.193 1.458 1.522 3.43 2.306 5.416 2.306 1.679 0 3.367-.561 4.764-1.711l21.973-18.1c.023-.019.058-.003.058.027v72.471c0 .011-.005.021-.013.027l-84.796 70.166c-.021.017-.053.006-.059-.02-.178-.787-.28-1.602-.28-2.442v-69.875c0-.011.005-.021.013-.027l36.161-29.938c3.242-2.683 3.649-7.52.866-10.711-2.712-3.108-7.522-3.252-10.699-.621l-26.283 21.76c-.023.019-.058.003-.058-.027v-90.172c0-.02.016-.036.036-.036h85.077c.02 0 .036.016.036.036v19.885zm2.949-112.077c-2.986-3.33-6.561-5.948-10.647-7.713-9.421-4.067-19.602-2.519-26.564 4.042-3.401 3.204-9.954 11.631-7.343 27.229.004.021-.013.041-.034.041h-13.99c-.015 0-.028-.009-.034-.023-6.278-15.711-5.872-29.651 1.29-39.598 7.243-10.06 20.653-15.277 34.995-13.616 13.92 1.612 25.709 9.187 33.45 21.2.012.019.004.044-.017.052-4.451 1.67-8.282 4.613-11.053 8.383-.013.018-.038.019-.053.003zm45.496 282.917c0 .02-.016.036-.036.036h-33.373c-.02 0-.036-.016-.036-.036v-190.722c0-.02.016-.036.036-.036h33.373c.02 0 .036.016.036.036zm10.913-205.793c0 .02-.016.036-.036.036h-55.172c-.02 0-.036-.016-.036-.036v-38.489c0-.02.016-.036.036-.036h55.172c.02 0 .036.016.036.036zm89.235 194.647c0 6.176-5.006 11.182-11.182 11.182h-73.931c-.02 0-.036-.016-.036-.036v-8.954c0-.011.005-.021.013-.027l85.077-70.392c.023-.019.058-.003.058.027v68.2zm0-87.761c0 .011-.005.021-.013.027l-85.077 70.392c-.023.019-.058.003-.058-.027v-83.336c0-.011.005-.021.013-.027l85.077-70.392c.023-.019.058-.003.058.027zm-13.428-91.851c.033 0 .048.042.023.063l-71.685 59.311c-.023.019-.058.003-.058-.027v-59.311c0-.02.016-.036.036-.036zm-69.254-68.56v-.761c1.682-8.953 6.349-15.388 12.558-17.271 3.597-1.092 7.071-.342 9.291 2.002 2.991 3.158 3.66 8.953 1.982 16.002-.004.016-.019.028-.035.028h-22.848zm96.673 15c.229 0 .437 38.125.437 38.125 0 .223-.212.435-.437.435h-88.191c-.02 0-.036-.016-.036-.036v-38.489c0-.02.016-.036.036-.036h88.191zm-79.757-68.235c14.353-1.667 27.767 3.552 35.015 13.616 7.164 9.948 7.572 23.888 1.295 39.597-.005.014-.019.023-.034.023h-14.052c-.022 0-.038-.02-.034-.041 1.762-10.722-.401-20.006-6.366-26.304-6.118-6.461-15.52-8.777-24.535-6.042-5.051 1.532-9.506 4.424-13.166 8.38-.015.016-.039.015-.052-.002-2.872-3.737-6.806-6.614-11.349-8.184-.022-.008-.031-.033-.018-.053 7.735-11.889 19.461-19.385 33.296-20.99zm177.876-101.698c0 .02-.016.036-.036.036h-117.845c-.02 0-.036-.016-.036-.036v-9.043c0-32.351 26.569-58.67 59.228-58.67 32.361 0 58.689 26.319 58.689 58.67z"/></g></svg>