<svg id="Capa_1" enable-background="new 0 0 512 512" height="512" viewBox="0 0 512 512" width="512" xmlns="http://www.w3.org/2000/svg"><g><path d="m459.5 459.5h-210c-12.407 0-22.5-10.094-22.5-22.5v-15c0-4.143 3.358-7.5 7.5-7.5s7.5 3.357 7.5 7.5v15c0 4.136 3.364 7.5 7.5 7.5h210c4.136 0 7.5-3.364 7.5-7.5v-210c0-4.136-3.364-7.5-7.5-7.5h-210c-4.136 0-7.5 3.364-7.5 7.5v165c0 4.143-3.358 7.5-7.5 7.5h-197c-20.678 0-37.5-16.822-37.5-37.5v-272c0-20.678 16.822-37.5 37.5-37.5h111.734c4.142 0 7.5 3.357 7.5 7.5s-3.358 7.5-7.5 7.5h-111.734c-12.407 0-22.5 10.094-22.5 22.5v19.5h482v-19.5c0-12.406-10.094-22.5-22.5-22.5h-290.266c-4.142 0-7.5-3.357-7.5-7.5s3.358-7.5 7.5-7.5h290.266c20.678 0 37.5 16.822 37.5 37.5v272c0 18.109-12.904 33.262-30 36.747v38.253c0 12.406-10.094 22.5-22.5 22.5zm-444.5-280v182.5c0 12.406 10.093 22.5 22.5 22.5h189.5v-85h-129.5c-4.142 0-7.5-3.357-7.5-7.5s3.358-7.5 7.5-7.5h129.5v-30h-129.5c-4.142 0-7.5-3.357-7.5-7.5s3.358-7.5 7.5-7.5h129.5v-12.5c0-12.406 10.093-22.5 22.5-22.5h210c12.406 0 22.5 10.094 22.5 22.5v156.215c8.73-3.096 15-11.437 15-21.215v-182.5h-148.5c-4.143 0-7.5-3.357-7.5-7.5s3.357-7.5 7.5-7.5h148.5v-40h-482v40h299.5c4.143 0 7.5 3.357 7.5 7.5s-3.357 7.5-7.5 7.5zm337 235c-29.271 0-49.223-5.21-58.509-8.314-5.379-1.801-8.991-6.822-8.991-12.496v-63.379c0-5.674 3.612-10.695 8.988-12.495 3.232-1.081 7.754-2.416 13.512-3.698v-34.618c0-24.813 20.187-45 45-45s45 20.187 45 45v34.617c5.756 1.282 10.278 2.617 13.509 3.697 5.379 1.801 8.991 6.822 8.991 12.496v63.379c0 5.674-3.612 10.695-8.988 12.495-9.289 3.106-29.241 8.316-58.512 8.316zm-52.5-22.133c7.662 2.433 25.915 7.133 52.5 7.133 26.583 0 44.835-4.699 52.5-7.133v-60.734c-7.662-2.433-25.915-7.133-52.5-7.133-26.583 0-44.835 4.699-52.5 7.133zm52.5-142.867c-16.542 0-30 13.458-30 30v31.955c8.52-1.157 18.546-1.955 30-1.955s21.48.798 30 1.955v-31.955c0-16.542-13.458-30-30-30zm-186.734 95h-67.766c-4.142 0-7.5-3.357-7.5-7.5s3.358-7.5 7.5-7.5h67.766c4.142 0 7.5 3.357 7.5 7.5s-3.358 7.5-7.5 7.5z"/></g></svg>